<?xml version="1.0" encoding="UTF-8"?>
<svg id="Layer_2" data-name="Layer 2" xmlns="http://www.w3.org/2000/svg" xmlns:xlink="http://www.w3.org/1999/xlink" viewBox="0 0 190.67 143.11">
  <defs>
    <style>
      .cls-1 {
        fill: none;
      }

      .cls-2 {
        fill: #fff;
      }

      .cls-3 {
        fill: #ff9305;
      }
    </style>
  </defs>
  <g id="Layer_1-2" data-name="Layer 1">
    <g>
      <g>
        <path class="cls-3" d="m39.86,93.19c.26.04.53.04.8.05h14.92c.27-.02.53-.02.8-.05.53-.07,1.04-.22,1.53-.43,2.54-1.1,3.93-3.97,3.4-6.55-.44-2.12-2.1-3.87-4.15-4.44-.26-.07-.52-.11-.78-.16-.27-.02-.53-.04-.8-.05h-14.92c-.71.05-.89.02-1.58.22-.51.14-1,.36-1.46.63-2.07,1.26-3.17,3.84-2.69,6.19.5,2.39,2.56,4.28,4.93,4.6Z"/>
        <path class="cls-3" d="m5.79,46.41c.26.04.53.04.8.05h14.92c.27-.02.53-.02.8-.05.53-.07,1.04-.22,1.53-.43,2.54-1.1,3.93-3.97,3.4-6.55-.44-2.12-2.1-3.87-4.15-4.44-.26-.07-.52-.11-.78-.16-.27-.02-.53-.04-.8-.05H6.59c-.71.05-.89.02-1.58.22-.51.14-1,.36-1.46.63-2.07,1.26-3.17,3.84-2.69,6.19.5,2.39,2.56,4.28,4.93,4.6Z"/>
        <path class="cls-3" d="m18.89,81.77c-.26-.07-.52-.11-.78-.16-.27-.02-.53-.04-.8-.05h-8.07c-.71.05-.89.02-1.58.22-.51.14-1,.36-1.46.63-2.07,1.26-3.17,3.84-2.69,6.19.5,2.39,2.56,4.28,4.93,4.6.26.04.53.04.8.05h8.07c.27-.02.53-.02.8-.05.53-.07,1.04-.22,1.53-.43,2.54-1.1,3.93-3.97,3.4-6.55-.44-2.12-2.1-3.87-4.15-4.44Z"/>
        <path class="cls-3" d="m48.07,125.13c-.26-.07-.52-.11-.78-.16-.27-.02-.53-.04-.8-.05h-8.07c-.71.05-.89.02-1.58.22-.51.14-1,.36-1.46.63-2.07,1.26-3.17,3.84-2.69,6.19.5,2.39,2.56,4.28,4.93,4.6.26.04.53.04.8.05h8.07c.27-.02.53-.02.8-.05.53-.07,1.04-.22,1.53-.43,2.54-1.1,3.93-3.97,3.4-6.55-.44-2.12-2.1-3.87-4.15-4.44Z"/>
        <path class="cls-2" d="m189.91,62.4s0-.1,0-.14c0-.14-.02-.29-.04-.43-.14-.9-.55-1.75-1.17-2.42-.32-.34-.48-.46-.77-.65-.07-.05-.14-.09-.21-.14-.03-.02-.06-.04-.09-.06l-40.15-23.18c-.2-.1-.4-.21-.61-.3-.57-.22-.73-.21-1.33-.3-.2,0-.41,0-.61.01-.05,0-.1,0-.16-.01H46.49c-.71.05-.89.02-1.58.22-.51.14-1,.36-1.46.63-2.07,1.26-3.17,3.84-2.69,6.19.5,2.39,2.56,4.28,4.93,4.6.26.04.53.04.8.05h27.16c.27.03.71.07.97.09.2.04.4.07.6.13,2.05.57,3.71,2.32,4.15,4.44.54,2.58-.85,5.45-3.39,6.55-.49.21-1,.36-1.53.43-.26.04-.53.04-.8.05H6.59c-.71.05-.89.02-1.58.22-.51.14-1,.36-1.46.63-2.07,1.26-3.17,3.84-2.69,6.19.5,2.39,2.56,4.28,4.93,4.6.26.04.53.04.8.05h80.73c.27.03.71.07.97.09.2.04.4.07.6.13,2.05.57,3.71,2.32,4.15,4.44.54,2.58-.85,5.45-3.39,6.55-.49.21-1,.36-1.53.43-.26.04-.53.04-.8.05h-11.99c-.71.05-.89.02-1.58.22-.51.14-1,.36-1.46.63-2.07,1.26-3.17,3.84-2.69,6.19.5,2.39,2.56,4.28,4.93,4.6.26.04.53.04.8.05h29.6c2.6,0,4.71-2.11,4.71-4.71v-16.6c0-.68.74-1.11,1.33-.77l20.72,11.96c5.56,3.21,8.99,9.15,8.99,15.57v10.46c0,6.66-7.21,10.83-12.98,7.5l-17.01-9.84c-.58-.34-1.01-.9-1.14-1.55-.44-2.14-2.34-3.74-4.61-3.74H30.92c-.71.05-.89.02-1.58.22-.51.14-1.01.36-1.46.63-2.07,1.26-3.17,3.84-2.69,6.19.5,2.39,2.56,4.28,4.93,4.6.26.04.53.04.8.05h49.91c.27.03.71.07.97.09.2.04.4.07.6.13,2.05.57,3.71,2.32,4.15,4.44.54,2.58-.85,5.45-3.39,6.55-.49.21-1,.36-1.53.43-.26.04-.53.04-.8.05h-14.73c-.71.05-.89.02-1.58.22-.51.14-1,.36-1.46.63-2.07,1.26-3.17,3.84-2.69,6.19.5,2.39,2.56,4.28,4.93,4.6.26.04.53.04.8.05h78.82s.06,0,.09,0c.07,0,.14,0,.21,0,.11,0,.22,0,.33-.01.12,0,.24-.02.36-.04.33-.05.65-.14.97-.26.11-.04.22-.1.33-.15.01,0,.03-.01.04-.02.35-.15.68-.34.99-.56l39.41-22.75c.19-.13.39-.24.56-.38.71-.57,1.25-1.35,1.51-2.22.18-.58.16-.74.2-1.34v-46.36s0-.07,0-.1Zm-43.15-16.92l28.3,16.34c.53.3.53,1.06,0,1.37l-5.55,3.21c-.95.55-2.12.55-3.07,0l-28.16-16.26c-.59-.34-.59-1.2,0-1.54l5.39-3.11c.96-.55,2.14-.55,3.1,0Zm-3.09,34.05l-28.16-16.26c-.59-.34-.59-1.2,0-1.54l5.39-3.11c.96-.55,2.14-.55,3.1,0l28.3,16.34c.53.3.53,1.06,0,1.37l-5.55,3.21c-.95.55-2.12.55-3.07,0Zm37.13,25.49c0,.75-.4,1.44-1.05,1.82l-26.83,15.49c-1.4.81-3.15-.2-3.15-1.82v-30.98c0-.75.4-1.44,1.05-1.82l7.23-4.17c0,5.37.01,13.03.02,16.87,0,1.07,1.15,1.73,2.08,1.2l11.26-6.42c.7-.4,1.13-1.14,1.13-1.94v-18.08l5.12-2.96c1.4-.81,3.15.2,3.15,1.82v30.98Z"/>
      </g>
      <rect class="cls-1" width="190.67" height="143.11"/>
    </g>
  </g>
</svg>