<?xml version="1.0" encoding="UTF-8"?>
<svg id="Layer_2" data-name="Layer 2" xmlns="http://www.w3.org/2000/svg" viewBox="0 0 190.67 143.11">
  <defs>
    <style>
      .cls-1 {
        stroke-miterlimit: 10;
      }

      .cls-1, .cls-2, .cls-3 {
        fill: none;
      }

      .cls-1, .cls-3 {
        stroke: #fff;
        stroke-linecap: round;
        stroke-width: 3px;
      }

      .cls-3 {
        stroke-linejoin: round;
      }

      .cls-4 {
        fill: #ff9305;
      }
    </style>
  </defs>
  <g id="Layer_1-2" data-name="Layer 1">
    <g>
      <g>
        <g>
          <path class="cls-1" d="m127.43,41.56h3.72c2.76,0,5,2.24,5,5v75h-35.26"/>
          <path class="cls-1" d="m70.99,121.56h-19.84c-2.76,0-5-2.24-5-5v-10.22"/>
          <circle class="cls-1" cx="85.94" cy="122.77" r="15"/>
          <circle class="cls-1" cx="156.6" cy="122.77" r="15"/>
          <path class="cls-1" d="m141.6,121.56h-5.45v-58c0-1.66,1.34-3,3-3h28.22c1.1,0,2.11.6,2.64,1.57l15.78,29.07c.24.44.36.93.36,1.43v25.93c0,1.66-1.34,3-3,3h-11.55"/>
          <polyline class="cls-3" points="186.15 92.63 154.32 92.63 154.32 72.56"/>
        </g>
        <g>
          <path class="cls-4" d="m40.78,87.6h23.05l-2.83,13.87H12.87l2.21-10.95,27.03-21.02c3.12-2.41,5.27-4.46,6.45-6.14,1.18-1.68,1.77-3.4,1.77-5.17s-.65-3.16-1.94-4.2c-1.3-1.03-3.15-1.55-5.56-1.55-2.18,0-4.25.53-6.23,1.59-1.97,1.06-3.72,2.59-5.25,4.59l-11.66-7.68c2.47-3.83,5.99-6.87,10.55-9.14,4.56-2.27,9.64-3.4,15.23-3.4,4.42,0,8.35.74,11.79,2.21s6.14,3.52,8.08,6.14c1.94,2.62,2.92,5.55,2.92,8.79,0,3.89-1.08,7.51-3.22,10.86-2.15,3.36-5.9,7.07-11.26,11.13l-12.98,10.07Z"/>
          <path class="cls-4" d="m127.15,89.63h-9.18l-2.38,11.83h-16.96l2.38-11.83h-32.68l2.21-11.39,34.8-38.59h18.81l-31.88,36.12h12.28l2.12-10.51h16.16l-2.12,10.51h9.27l-2.83,13.87Z"/>
        </g>
      </g>
      <rect class="cls-2" width="190.67" height="143.11"/>
    </g>
  </g>
</svg>