<?xml version="1.0" encoding="UTF-8"?>
<svg id="Layer_2" data-name="Layer 2" xmlns="http://www.w3.org/2000/svg" viewBox="0 0 190.67 143.11">
  <defs>
    <style>
      .cls-1 {
        stroke-miterlimit: 10;
      }

      .cls-1, .cls-2, .cls-3 {
        fill: none;
      }

      .cls-1, .cls-3 {
        stroke: #045cb8;
        stroke-linecap: round;
        stroke-width: 3px;
      }

      .cls-3 {
        stroke-linejoin: round;
      }

      .cls-4 {
        fill: #ff9305;
      }
    </style>
  </defs>
  <g id="Layer_1-2" data-name="Layer 1">
    <g>
      <g>
        <g>
          <path class="cls-1" d="m127.43,41.56h3.72c2.76,0,5,2.24,5,5v75h-35.26"/>
          <path class="cls-1" d="m70.99,121.56h-19.84c-2.76,0-5-2.24-5-5v-10.22"/>
          <circle class="cls-1" cx="85.94" cy="122.77" r="15"/>
          <circle class="cls-1" cx="156.6" cy="122.77" r="15"/>
          <path class="cls-1" d="m141.6,121.56h-5.45v-58c0-1.66,1.34-3,3-3h28.22c1.1,0,2.11.6,2.64,1.57l15.78,29.07c.24.44.36.93.36,1.43v25.93c0,1.66-1.34,3-3,3h-11.55"/>
          <polyline class="cls-3" points="186.15 92.63 154.32 92.63 154.32 72.56"/>
        </g>
        <g>
          <path class="cls-4" d="m30.86,55c.01-24.08,19.44-43.36,43.69-43.34,23.64.02,42.97,19.6,42.95,43.53-.02,23.8-19.5,43.15-43.42,43.12-23.87-.02-43.23-19.43-43.22-43.31Zm50.77-16.51c-.11.59-.11,1.04-.28,1.4-.22.44-.51,1.04-.9,1.15-.39.12-1-.18-1.4-.46-.28-.2-.39-.67-.53-1.04-.41-1.01-.75-2.05-1.21-3.03-.19-.41-.59-.75-.97-1.02-.16-.12-.56-.1-.73.02-.12.09-.1.47-.03.7.08.28.25.53.4.78.73,1.21.67,1.58-.49,2.43-.32.24-.67.45-1.03.61-1.19.52-1.91.1-2.24-1.14-.22-.84-.53-1.68-.97-2.43-.54-.92-1.28-1.19-2.26-.81-.85.33-1.7.78-2.41,1.35-1.43,1.14-2.87,2.22-4.68,2.67-1.31.32-2.67-.32-3.3-1.52-.51-.97-.22-2.16.75-3.11.7-.69,1.55-.86,2.5-.81.44.03.92.05,1.33-.09,1.16-.38,1.24-.8.43-1.67-.16-.18-.34-.34-.5-.52-.71-.77-.56-1.31.44-1.61,1.2-.36,2.41-.68,3.6-1.08,1.5-.5,2.81-1.2,3.33-2.91.16-.51.8-1.12,1.29-1.19.34-.05.87.7,1.19,1.17.3.44.57.88,1.16.82,1.65-.16,3.04-.7,3.55-2.35.21-.68.59-.93,1.32-.75.77.19,1.49-.03,2.08-.56.15-.13.18-.4.27-.61-.21-.05-.43-.16-.63-.14-.47.05-.94.23-1.41.23-1.47.02-2.02-.95-1.31-2.22.18-.33.35-.67.62-1.19-1.04.63-1.9,1.91-1.68,2.69.39,1.37-.65,2.11-1.21,3.01-.48.77-2.05.76-2.19.1-.29-1.42-1.07-1.56-2.22-1.14-.07.03-.16.01-.24.01-1.13.01-1.82-.75-1.45-1.81.24-.69.69-1.41,1.24-1.88,1.44-1.23,2.81-2.51,3.99-4.01.98-1.26,2.38-1.87,4.01-1.79.82.04,1.66.11,2.46.28,1.01.22,2.01.5,2.98.85.57.21,1.06.71.89,1.35-.12.48-.55.9-.9,1.3-.17.19-.46.27-.9.51.94.1,1.71.37,2.15-.45.57-1.05,1.47-1.57,2.57-1.84.43-.11.84-.29,1.43-.5-.32-.15-.44-.21-.56-.26-6.01-2.27-12.22-3.07-18.61-2.56-1.26.1-2.34.54-3.45,1.11-3.28,1.67-5.97,4.3-9.44,5.66-.53.21-.96.66-1.41,1.04-.62.51-1.17,1.1-1.81,1.57-.93.66-1.88,1.3-2.89,1.82-.69.36-1.13.08-1.25-.69-.07-.47-.07-.96,0-1.43.09-.59.28-1.17.46-1.91-1.24.9-2.53,1.52-2.92,3.06-.22.85-.58,1.66-.85,2.5-.44,1.35-1.16,2.49-2.23,3.45-.73.65-1.37,1.41-2.05,2.12-.71.75-1.4,1.52-2.12,2.25-.46.47-1.04.85-1.44,1.37-1.33,1.73-2.61,3.5-3.88,5.28-.21.3-.33.67-.45,1.02-1.77,5.3-2.48,10.73-2.09,16.31.04.52.28.78.66,1.08.94.74,1.94,1.45,2.67,2.36,1,1.27,1.82,2.69,2.62,4.09.81,1.41,2,2.3,3.51,2.71,2.6.7,4.03,2.43,4.44,5,.42,2.71.69,5.44,1.02,8.16.06.49-.14.77-.58,1.01-.26.14-.57.58-.53.83.3,1.86.81,3.7,2.39,4.9,10.13,7.64,21.49,10.26,33.9,7.77,18.53-3.71,32.21-19.77,33.15-38.61.05-.94,0-1.88,0-2.81-.28.46-.44.96-.55,1.46-.3,1.43-.51,2.89-.87,4.3-.3,1.22-.99,2.24-2,3.01-.69.52-1.26.25-1.3-.6-.03-.58.05-1.18,0-1.76-.14-1.72-.24-3.45-.52-5.16-.09-.59-.53-1.3-1.02-1.6-.67-.41-1.08-.92-1.35-1.6-.18-.45-.31-.91-.46-1.36-.21-.64-.63-.76-1.3-.73-.93.04-1.97.08-2.8-.26-1.62-.66-3.13-1.58-4.68-2.4-.24-.12-.47-.26-.76-.43.07,1.01.58,1.87,1.42,2.73.5.52,1.05.56,1.73.56,1.14-.01,2.2.33,2.73,1.46.52,1.09.13,2.08-.56,2.97-1.03,1.33-2.36,2.22-3.97,2.7-.89.27-1.8.5-2.68.79-1.67.55-2.48.18-3.1-1.48-.07-.2-.16-.4-.21-.6-.65-2.57-2.1-4.7-3.72-6.74-.38-.48-.86-.75-1.54-.75.02.17.02.27.05.37.36,1.47.71,2.94,1.08,4.4.06.25.14.53.29.73.79,1.03,1.6,2.05,2.43,3.06.6.74,1.28,1.42,1.84,2.19.39.53.83.81,1.47.75.77-.08,1.53-.18,2.3-.26.78-.09,1.13.2,1.06.98-.04.5-.12,1.04-.35,1.46-.59,1.04-1.19,2.09-1.95,3-1.47,1.76-3.05,3.42-4.59,5.12-1.01,1.12-1.68,2.38-1.8,3.92-.24,3.05-1.55,5.44-4.35,6.89-.05.02-.09.06-.13.09-.41.21-.52.51-.41.99.28,1.2.03,1.77-1.11,2.2-.87.33-1.5.88-2.02,1.6-.39.54-.83,1.04-1.25,1.56-1.46,1.82-3.44,2.08-5.57,1.81-.9-.11-1.22-.63-1.24-1.58,0-.31-.05-.63-.15-.93-.43-1.31-.89-2.6-1.33-3.91-.19-.55-.24-1.18-.54-1.65-.87-1.36-1-2.8-.36-4.19.75-1.65.57-3.09-.45-4.5-.2-.28-.36-.59-.56-.88-.88-1.27-1.19-2.64-.85-4.17.16-.71.17-1.45.26-2.35-1.29.49-2.18-.06-3.15-.45-.78-.32-1.7-.48-2.54-.45-1.35.06-2.7.28-4.03.54-1.36.26-2.51-.07-3.42-1.05-1.12-1.21-2.18-2.48-3.22-3.76-.89-1.09-1.27-2.37-1.25-3.79.01-.69-.06-1.39-.17-2.07-.28-1.84-.37-3.65.88-5.19,1.61-1.99,3.18-4.01,4.93-5.87,3.5-3.73,7.98-3.8,12.61-3.14.64.09,1.01.46,1.23,1.09.44,1.31,1.3,2.32,2.5,3.01,1.27.73,2.14.57,3.07-.57.34-.42.7-.52,1.19-.31.51.22,1.03.47,1.57.59,1.89.42,3.78.92,5.7,1.13,1.65.18,2.72-1.1,2.6-2.72-.07-.94-.53-1.34-1.48-1.24-.42.04-.84.16-1.25.26-1.21.29-2.22,0-2.93-1.06-.41-.62-.78-1.26-1.28-2.08Zm31.05,21.71s.08.03.12.04c.09-.27.21-.53.27-.81.21-1.04.42-2.09.59-3.14.26-1.57.63-3.08,1.87-4.23.17-.16.22-.53.19-.8-.64-6.95-2.83-13.38-6.69-19.2-4.3-6.48-9.96-11.41-16.98-14.77-.28-.13-.67-.21-.94-.12-.9.3-1.76.74-2.67,1.03-.69.23-1.19.58-1.62,1.19-.33.47-.87,1-1.38,1.07-.92.13-1.9,0-2.83-.15-.62-.11-1.12-.55-1.13-1.27-.01-.67.43-1.06.99-1.33.34-.16.68-.31,1.02-.46-1.75-.73-3.51-1.14-5.29-.93-.77.09-1.67.6-2.16,1.2-1.26,1.57-2.68,2.96-4.25,4.2-.27.21-.46.53-.69.79.01.09.03.18.04.27,1.6-.63,2.93-.56,3.68,1.3.31-.75.51-1.42.6-2.1.22-1.64,1-2.92,2.38-3.8,1.05-.66,2.08-.16,2.22,1.07.05.47-.14.98-.26,1.46-.06.23-.2.44-.36.77.53-.12.92-.22,1.31-.28.93-.14,1.63.19,2.03.92.39.71.27,1.52-.36,2.21-.7.76-1.57,1.19-2.61,1.22-.51.01-.82.17-1.07.63-.99,1.79-2.71,2.36-4.58,2.43-.65.02-1.33-.53-1.97-.86-.15-.08-.19-.35-.33-.63-1.37,3.25-4.35,3.45-6.86,4.44.08.15.13.24.18.33.97,1.45.75,2.54-.81,3.34-.59.3-1.3.4-1.97.51-.41.07-.86-.05-1.27.02-.68.12-1.09.61-1.16,1.26-.07.67.47,1.01,1.01,1.17.32.09.78.04,1.07-.13,1.17-.67,2.31-1.4,3.45-2.12.69-.44,1.32-1.01,2.05-1.36,2.61-1.24,4.63-.42,5.71,2.28.22.56.38,1.15.61,1.83.37-.25.68-.46.94-.64-.28-.69-.59-1.26-.76-1.87-.3-1.1.24-1.96,1.35-2.24,1.15-.3,2.11.13,2.73,1.05.62.92,1.04,1.97,1.53,2.96.12.23.19.49.34.92.16-.48.23-.74.33-.99.27-.68.57-1.4,1.44-1.41.79,0,1.07.68,1.38,1.28.33.64.67,1.27,1.03,1.89.31.53.76.68,1.37.52.56-.15,1.14-.28,1.73-.32,1.51-.12,2.63.83,2.81,2.33.34,2.73-1.4,4.7-4.16,4.65-2.29-.04-4.48-.62-6.61-1.41-.49-.18-.85-.21-1.28.2-.74.7-1.68.93-2.67.74-2.17-.43-3.57-1.83-4.49-3.74-.31-.64-.69-.99-1.38-.96-1.88.08-3.77.16-5.64.29-1.24.09-2.28.68-3.24,1.44-2.53,2.01-4.51,4.52-6.33,7.16-.53.77-.68,1.65-.58,2.59.15,1.43.22,2.87.39,4.29.06.49.18,1.04.47,1.42,1.13,1.48,2.33,2.9,3.53,4.32.48.57,1.15.72,1.89.61,1.32-.2,2.64-.36,3.95-.57,1.4-.22,2.71-.01,3.94.67.6.34,1.18.47,1.89.36,1.1-.18,1.71.31,1.76,1.42.04.92-.04,1.87-.22,2.77-.2,1.03.04,1.89.58,2.73.23.36.44.73.68,1.08,1.27,1.84,1.5,3.72.57,5.82-.3.68-.19,1.62-.02,2.39.24,1.07.7,2.1,1.08,3.13.37,1.02.77,2.03,1.14,3.04.13.34.29.71.29,1.06,0,.58.25.74.77.72,1.41-.07,2.63-.42,3.56-1.63,1.01-1.31,1.83-2.86,3.61-3.37.12-.04.27-.42.22-.57-.43-1.19.05-1.97,1.08-2.49,2.5-1.27,3.68-3.36,3.85-6.09.01-.16.05-.32.07-.47.15-1.16.57-2.22,1.32-3.12.98-1.16,1.99-2.29,2.98-3.45,1.16-1.35,2.32-2.71,3.46-4.08.28-.34.43-.77.73-1.31-.6.05-1.02.1-1.43.12-1.11.06-2.1-.16-2.84-1.11-.73-.94-1.6-1.77-2.32-2.73-.93-1.25-2.16-2.47-2.54-3.89-.5-1.87-.91-3.76-1.63-5.57-.23-.56-.03-.99.54-1.11,1.42-.29,2.82-.21,3.82.99,1.71,2.06,3.23,4.24,3.99,6.86.13.43.3.86.44,1.29.15.46.43.63.91.47,1.02-.32,2.05-.59,3.06-.91,1.37-.43,2.49-1.23,3.28-2.42.6-.9.24-1.61-.85-1.72-.34-.03-.7.04-1.04,0-.36-.04-.77-.06-1.06-.24-1.48-.97-2.52-2.29-2.87-4.06-.08-.42-.05-.92.09-1.33.35-1.08,1.04-1.24,2.02-.67,1.72,1.01,3.45,2.01,5.24,2.89.57.28,1.35.33,2,.25,1.75-.24,2.59.2,3.2,1.88.13.35.21.72.36,1.06.1.24.23.56.43.65,1.53.68,1.94,2.07,2.19,3.5.24,1.38.32,2.79.47,4.18Zm-79.71.55c1.24,9.39,5.3,17.35,11.99,24.04.06-.1.09-.12.09-.14-.01-.1-.02-.21-.04-.31-.23-1.16-.35-2.28.69-3.17.12-.11.15-.39.13-.58-.2-1.99-.41-3.97-.62-5.96-.26-2.57-1.26-4.48-4.05-5.17-1.69-.42-3.01-1.55-3.88-3.13-.51-.93-1.04-1.86-1.61-2.77-.69-1.1-1.53-2.09-2.7-2.8ZM63.55,14.92c-.05-.08-.11-.16-.16-.24-2.73.72-5.35,1.74-7.89,2.98-1.81.88-2.93,2.34-3.65,4.15-.11.28-.15.59-.22.89.06.04.12.09.18.13.71-.58,1.41-1.19,2.15-1.74,1.25-.94,2.49-1.9,3.81-2.74,1.9-1.2,3.86-2.3,5.79-3.44Zm-17.94,9.79c-2.79,2.53-5.14,5.39-6.99,8.68.79-.56,1.54-1.15,2.2-1.84,1.08-1.13,2.06-2.35,3.15-3.46.94-.95,1.33-2.12,1.64-3.38Z"/>
          <path class="cls-4" d="m122.99,57.45c-.68,16.18-8.75,30.56-25,40.15-.3.18-.61.43-.92.45-.31.02-.75-.14-.91-.37-.13-.19.03-.63.15-.91.07-.16.34-.24.52-.35,13.78-7.91,21.89-19.72,24.15-35.44,1.01-7.01.26-13.93-1.94-20.67-.1-.3-.27-.63-.23-.92.04-.29.26-.74.48-.79.28-.06.67.15.93.34.16.12.19.42.27.65,1.65,4.97,2.46,10.08,2.5,17.86Z"/>
          <path class="cls-4" d="m74.19,6.16c7.17.04,14.01,1.54,20.52,4.55.36.17.79.29,1.04.57.2.22.34.72.22.96-.12.23-.58.35-.91.37-.23.02-.49-.19-.73-.3-17.35-8.12-37.49-5.15-51.76,7.64-.14.12-.28.34-.42.35-.36,0-.83.03-1.05-.17-.16-.15-.09-.69.04-.98.14-.29.47-.49.73-.72,8.36-7.28,18.05-11.35,29.12-12.11,1.06-.07,2.13-.11,3.19-.16Z"/>
          <path class="cls-4" d="m26.21,54.2c.6.09.76.48.79,1.02.08,1.65.12,3.31.3,4.94,1.1,9.89,4.97,18.56,11.51,26.05.21.24.52.46.59.74.08.31.05.8-.14.97-.19.17-.66.08-.99.03-.15-.02-.27-.24-.39-.38-7.36-8.33-11.51-18.03-12.33-29.13-.08-1.09-.1-2.18-.13-3.27-.02-.55.22-.92.81-.98Z"/>
          <path class="cls-4" d="m74.29,103.87c-8.19-.09-15.89-2-23.12-5.84-.55-.29-1.34-.56-.91-1.39.44-.84,1.1-.32,1.65-.03,9.79,5.14,20.12,6.71,31,4.77.21-.04.42-.08.63-.12.51-.09.93.03,1.05.58.11.54-.17.87-.7.97-1.15.2-2.3.46-3.47.58-2.04.21-4.09.33-6.13.49Z"/>
          <path class="cls-4" d="m101.3,14.56c.34.17.6.25.79.41,1.8,1.44,3.6,2.89,5.39,4.35.43.35.68.82.24,1.31-.44.49-.89.25-1.32-.11-1.74-1.43-3.51-2.83-5.24-4.28-.27-.23-.45-.68-.48-1.04-.02-.19.38-.41.61-.64Z"/>
          <path class="cls-4" d="m112.69,60.19c-.15-1.4-.23-2.8-.47-4.18-.25-1.43-.66-2.82-2.19-3.5-.2-.09-.32-.41-.43-.65-.15-.34-.23-.71-.36-1.06-.6-1.68-1.44-2.12-3.2-1.88-.65.09-1.43.04-2-.25-1.79-.88-3.52-1.88-5.24-2.89-.98-.58-1.67-.42-2.02.67-.13.41-.17.91-.09,1.33.35,1.77,1.39,3.09,2.87,4.06.29.19.7.21,1.06.24.34.04.69-.04,1.04,0,1.09.11,1.45.82.85,1.72-.79,1.2-1.91,2-3.28,2.42-1.02.32-2.05.59-3.06.91-.49.15-.76,0-.91-.47-.14-.43-.31-.85-.44-1.29-.76-2.62-2.28-4.81-3.99-6.86-1-1.2-2.4-1.29-3.82-.99-.57.12-.77.55-.54,1.11.73,1.81,1.13,3.7,1.63,5.57.38,1.42,1.61,2.64,2.54,3.89.71.95,1.58,1.79,2.32,2.73.75.96,1.73,1.17,2.84,1.11.41-.02.83-.07,1.43-.12-.3.55-.45.98-.73,1.31-1.13,1.38-2.3,2.73-3.46,4.08-.99,1.15-2,2.29-2.98,3.45-.76.9-1.17,1.96-1.32,3.12-.02.16-.06.32-.07.47-.17,2.73-1.35,4.83-3.85,6.09-1.03.52-1.52,1.3-1.08,2.49.05.15-.1.53-.22.57-1.78.51-2.6,2.07-3.61,3.37-.93,1.21-2.16,1.56-3.56,1.63-.53.03-.78-.14-.77-.72,0-.35-.17-.71-.29-1.06-.37-1.02-.77-2.03-1.14-3.04-.38-1.04-.84-2.06-1.08-3.13-.17-.77-.28-1.71.02-2.39.93-2.1.7-3.98-.57-5.82-.24-.35-.45-.72-.68-1.08-.54-.84-.78-1.7-.58-2.73.18-.91.26-1.85.22-2.77-.05-1.11-.67-1.59-1.76-1.42-.71.12-1.29-.02-1.89-.36-1.23-.69-2.55-.89-3.94-.67-1.31.21-2.64.37-3.95.57-.74.11-1.41-.04-1.89-.61-1.2-1.42-2.4-2.85-3.53-4.32-.29-.37-.41-.93-.47-1.42-.16-1.43-.23-2.86-.39-4.29-.1-.94.05-1.82.58-2.59,1.81-2.65,3.79-5.15,6.33-7.16.96-.76,2-1.35,3.24-1.44,1.88-.13,3.76-.21,5.64-.29.69-.03,1.07.32,1.38.96.92,1.91,2.33,3.31,4.49,3.74,1,.2,1.94-.04,2.67-.74.43-.41.79-.38,1.28-.2,2.13.79,4.32,1.37,6.61,1.41,2.75.05,4.5-1.92,4.16-4.65-.19-1.51-1.3-2.45-2.81-2.33-.58.05-1.16.17-1.73.32-.6.16-1.06,0-1.37-.52-.36-.62-.7-1.25-1.03-1.89-.31-.6-.58-1.29-1.38-1.28-.87,0-1.17.72-1.44,1.41-.1.25-.17.5-.33.99-.16-.43-.23-.69-.34-.92-.5-1-.92-2.05-1.53-2.96-.62-.92-1.57-1.35-2.73-1.05-1.11.29-1.64,1.15-1.35,2.24.16.61.47,1.18.76,1.87-.26.18-.57.39-.94.64-.22-.68-.38-1.27-.61-1.83-1.08-2.7-3.1-3.53-5.71-2.28-.73.35-1.36.92-2.05,1.36-1.14.73-2.28,1.46-3.45,2.12-.29.17-.75.23-1.07.13-.54-.16-1.08-.49-1.01-1.17.07-.65.48-1.14,1.16-1.26.41-.07.86.05,1.27-.02.67-.12,1.38-.21,1.97-.51,1.55-.8,1.78-1.89.81-3.34-.06-.09-.1-.18-.18-.33,2.51-.99,5.49-1.19,6.86-4.44.14.28.18.55.33.63.64.34,1.32.89,1.97.86,1.86-.07,3.59-.65,4.58-2.43.26-.46.57-.62,1.07-.63,1.03-.03,1.91-.46,2.61-1.22.63-.69.75-1.49.36-2.21-.4-.74-1.11-1.07-2.03-.92-.39.06-.77.16-1.31.28.16-.33.3-.54.36-.77.12-.48.31-.99.26-1.46-.14-1.23-1.17-1.73-2.22-1.07-1.38.87-2.16,2.16-2.38,3.8-.09.68-.29,1.34-.6,2.1-.75-1.86-2.09-1.93-3.68-1.3-.01-.09-.03-.18-.04-.27.23-.27.42-.58.69-.79,1.57-1.25,2.99-2.63,4.25-4.2.49-.6,1.39-1.11,2.16-1.2,1.78-.21,3.54.19,5.29.93-.34.15-.68.3-1.02.46-.56.27-1,.66-.99,1.33.01.72.51,1.17,1.13,1.27.93.16,1.91.28,2.83.15.51-.07,1.06-.6,1.38-1.07.43-.61.93-.96,1.62-1.19.91-.3,1.77-.73,2.67-1.03.27-.09.67-.02.94.12,7.02,3.36,12.68,8.3,16.98,14.77,3.87,5.82,6.06,12.25,6.69,19.2.02.26-.02.64-.19.8-1.23,1.15-1.6,2.66-1.87,4.23-.17,1.05-.38,2.1-.59,3.14-.06.28-.18.54-.27.81-.04-.01-.08-.03-.12-.04Z"/>
          <path class="cls-4" d="m32.98,60.74c1.17.71,2.01,1.7,2.7,2.8.57.9,1.09,1.83,1.61,2.77.87,1.58,2.2,2.71,3.88,3.13,2.79.69,3.78,2.6,4.05,5.17.2,1.99.42,3.97.62,5.96.02.19,0,.48-.13.58-1.04.89-.92,2.02-.69,3.17.02.1.03.21.04.31,0,.02-.02.04-.09.14-6.7-6.69-10.75-14.65-11.99-24.04Z"/>
          <path class="cls-4" d="m63.55,14.92c-1.93,1.14-3.9,2.24-5.79,3.44-1.32.84-2.55,1.8-3.81,2.74-.74.55-1.43,1.16-2.15,1.74-.06-.04-.12-.09-.18-.13.07-.3.1-.61.22-.89.72-1.81,1.84-3.27,3.65-4.15,2.54-1.24,5.16-2.26,7.89-2.98.05.08.11.16.16.24Z"/>
          <path class="cls-4" d="m45.61,24.72c-.3,1.25-.7,2.42-1.64,3.38-1.1,1.11-2.07,2.34-3.15,3.46-.66.69-1.41,1.28-2.2,1.84,1.85-3.28,4.2-6.15,6.99-8.68Z"/>
          <path class="cls-4" d="m89.25,85.06c-.73-.01-1.12-.42-.81-1.07.51-1.07,1.1-2.13,1.84-3.04,1.15-1.42,2.45-2.73,3.71-4.06.18-.19.63-.37.82-.28.32.15.62.49.76.82.1.25,0,.65-.14.91-.91,1.6-1.8,3.2-2.79,4.75-.77,1.2-1.88,1.95-3.37,1.97Z"/>
          <path class="cls-4" d="m62.89,29.61c-.34-.23-.93-.41-1.07-.77-.14-.37,0-1.07.28-1.35.65-.62.94-1.34,1.19-2.17.4-1.33,1.65-1.65,2.59-.64.5.54.88,1.28,1.06,1.99.3,1.19-.22,1.94-1.4,2.29-.81.24-1.64.41-2.65.65Zm1.23-1.66c.59-.34,1.26-.51,1.32-.81.08-.42-.28-.93-.46-1.4-.09.03-.18.05-.26.08-.17.62-.35,1.23-.6,2.14Z"/>
          <path class="cls-4" d="m57.7,21.59c.1-.16.23-.55.49-.76.9-.72,1.96-.77,3.02-.49.21.06.48.42.48.64,0,.26-.2.67-.42.75-.89.34-1.81.63-2.74.85-.5.12-.86-.28-.84-1Z"/>
          <path class="cls-4" d="m64.12,27.95c.25-.9.43-1.52.6-2.14.09-.03.18-.05.26-.08.17.47.54.98.46,1.4-.06.3-.73.47-1.32.81Z"/>
        </g>
      </g>
      <rect class="cls-2" width="190.67" height="143.11"/>
    </g>
  </g>
</svg>