<?xml version="1.0" encoding="UTF-8"?>
<svg id="Layer_2" data-name="Layer 2" xmlns="http://www.w3.org/2000/svg" viewBox="0 0 190.67 143.11">
  <defs>
    <style>
      .cls-1 {
        stroke-miterlimit: 10;
      }

      .cls-1, .cls-2, .cls-3 {
        fill: none;
      }

      .cls-1, .cls-3 {
        stroke: #fff;
        stroke-linecap: round;
        stroke-width: 3px;
      }

      .cls-3 {
        stroke-linejoin: round;
      }

      .cls-4 {
        fill: #ff9305;
      }
    </style>
  </defs>
  <g id="Layer_1-2" data-name="Layer 1">
    <g>
      <g>
        <g>
          <path class="cls-1" d="m127.43,41.56h3.72c2.76,0,5,2.24,5,5v75h-35.26"/>
          <path class="cls-1" d="m70.99,121.56h-19.84c-2.76,0-5-2.24-5-5v-10.22"/>
          <circle class="cls-1" cx="85.94" cy="122.77" r="15"/>
          <circle class="cls-1" cx="156.6" cy="122.77" r="15"/>
          <path class="cls-1" d="m141.6,121.56h-5.45v-58c0-1.66,1.34-3,3-3h28.22c1.1,0,2.11.6,2.64,1.57l15.78,29.07c.24.44.36.93.36,1.43v25.93c0,1.66-1.34,3-3,3h-11.55"/>
          <polyline class="cls-3" points="186.15 92.63 154.32 92.63 154.32 72.56"/>
        </g>
        <g>
          <path class="cls-4" d="m28.43,98.59c-.41,0-.79,0-1.17,0-.92,0-1.85.07-2.76-.02-1.89-.2-3.27-1.71-3.31-3.61-.07-3.16-.07-6.31.22-9.46.12-1.29.45-2.53.96-3.73.71-1.69,1.93-2.85,3.63-3.43,1.64-.56,3.33-.98,5-1.46,1.33-.38,2.66-.74,3.98-1.14,1.48-.45,2.82-1.18,4.07-2.08,1.4-1.01,2.86-1.94,4.25-2.96,2.29-1.67,4.82-2.82,7.52-3.64,2.79-.85,5.65-1.36,8.55-1.51,7.99-.43,15.76.74,23.31,3.36,3.07,1.06,6.04,2.4,8.76,4.21,1.65,1.09,3.25,2.27,4.86,3.42.23.17.44.37.65.57.82.79,1.79,1.18,2.93,1.32,1.92.24,3.83.55,5.73.89,2.49.45,4.99.9,7.39,1.72,1.3.44,2.56.97,3.76,1.64,1.71.96,2.76,2.39,3.28,4.25.63,2.27.74,4.59.65,6.92-.05,1.27-.17,2.53-.68,3.71-.36.84-.57.97-1.48.96-1.84-.02-3.69-.01-5.53-.02-.14,0-.27,0-.44,0,.64-3.91-.34-7.29-3.21-10.02-2.19-2.09-4.87-3.03-7.89-2.87-6.32.34-11.17,6.16-9.92,12.85h-42.13c.65-3.94-.38-7.38-3.37-10.12-2.2-2.02-4.86-2.91-7.84-2.73-6.2.37-11.14,6.18-9.79,12.98Zm53.38-20.21c2.11.08,5.54.21,8.97.34.29.01.57,0,.69-.32.12-.3-.05-.5-.26-.68-1.31-1.18-2.72-2.24-4.25-3.12-4.68-2.7-9.72-4.33-15.07-5.03-.95-.12-1.9-.21-2.85-.29-.48-.04-.67.19-.63.67,0,.1.02.21.04.31.31,2.28.63,4.56.94,6.85.1.76.16.83.92.86,3.4.13,6.79.25,11.51.42Zm-27.73-.85s0,.07,0,.1c3.55.04,7.09.07,10.64.11.5,0,.61-.14.56-.63-.29-2.42-.58-4.85-.87-7.27-.07-.57-.13-.63-.71-.63-2.71,0-5.37.31-8.02.89-3.79.83-7.29,2.27-10.35,4.7-.8.64-1.55,1.34-2.3,2.04-.11.1-.18.34-.14.47.04.11.26.16.41.23.05.02.11,0,.17,0,3.54,0,7.07,0,10.61,0Z"/>
          <path class="cls-4" d="m30.62,96.29c0-4.55,3.71-8.28,8.26-8.29,4.57,0,8.31,3.69,8.31,8.23,0,4.62-3.68,8.34-8.27,8.34-4.58,0-8.3-3.7-8.3-8.28Z"/>
          <path class="cls-4" d="m110.35,96.28c0,4.54-3.71,8.28-8.23,8.29-4.64,0-8.34-3.68-8.34-8.3,0-4.56,3.71-8.27,8.27-8.27,4.57,0,8.29,3.71,8.3,8.28Z"/>
        </g>
        <g>
          <path class="cls-4" d="m28.43,55.14c-.41,0-.79,0-1.17,0-.92,0-1.85.07-2.76-.02-1.89-.2-3.27-1.71-3.31-3.61-.07-3.16-.07-6.31.22-9.46.12-1.29.45-2.53.96-3.73.71-1.69,1.93-2.85,3.63-3.43,1.64-.56,3.33-.98,5-1.46,1.33-.38,2.66-.74,3.98-1.14,1.48-.45,2.82-1.18,4.07-2.08,1.4-1.01,2.86-1.94,4.25-2.96,2.29-1.67,4.82-2.82,7.52-3.64,2.79-.85,5.65-1.36,8.55-1.51,7.99-.43,15.76.74,23.31,3.36,3.07,1.06,6.04,2.4,8.76,4.21,1.65,1.09,3.25,2.27,4.86,3.42.23.17.44.37.65.57.82.79,1.79,1.18,2.93,1.32,1.92.24,3.83.55,5.73.89,2.49.45,4.99.9,7.39,1.72,1.3.44,2.56.97,3.76,1.64,1.71.96,2.76,2.39,3.28,4.25.63,2.27.74,4.59.65,6.92-.05,1.27-.17,2.53-.68,3.71-.36.84-.57.97-1.48.96-1.84-.02-3.69-.01-5.53-.02-.14,0-.27,0-.44,0,.64-3.91-.34-7.29-3.21-10.02-2.19-2.09-4.87-3.03-7.89-2.87-6.32.34-11.17,6.16-9.92,12.85h-42.13c.65-3.94-.38-7.38-3.37-10.12-2.2-2.02-4.86-2.91-7.84-2.73-6.2.37-11.14,6.18-9.79,12.98Zm53.38-20.21c2.11.08,5.54.21,8.97.34.29.01.57,0,.69-.32.12-.3-.05-.5-.26-.68-1.31-1.18-2.72-2.24-4.25-3.12-4.68-2.7-9.72-4.33-15.07-5.03-.95-.12-1.9-.21-2.85-.29-.48-.04-.67.19-.63.67,0,.1.02.21.04.31.31,2.28.63,4.56.94,6.85.1.76.16.83.92.86,3.4.13,6.79.25,11.51.42Zm-27.73-.85s0,.07,0,.1c3.55.04,7.09.07,10.64.11.5,0,.61-.14.56-.63-.29-2.42-.58-4.85-.87-7.27-.07-.57-.13-.63-.71-.63-2.71,0-5.37.31-8.02.89-3.79.83-7.29,2.27-10.35,4.7-.8.64-1.55,1.34-2.3,2.04-.11.1-.18.34-.14.47.04.11.26.16.41.23.05.02.11,0,.17,0,3.54,0,7.07,0,10.61,0Z"/>
          <path class="cls-4" d="m30.62,52.84c0-4.55,3.71-8.28,8.26-8.29,4.57,0,8.31,3.69,8.31,8.23,0,4.62-3.68,8.34-8.27,8.34-4.58,0-8.3-3.7-8.3-8.28Z"/>
          <path class="cls-4" d="m110.35,52.84c0,4.54-3.71,8.28-8.23,8.29-4.64,0-8.34-3.68-8.34-8.3,0-4.56,3.71-8.27,8.27-8.27,4.57,0,8.29,3.71,8.3,8.28Z"/>
        </g>
      </g>
      <rect class="cls-2" width="190.67" height="143.11"/>
    </g>
  </g>
</svg>