<?xml version="1.0" encoding="UTF-8"?>
<svg id="Layer_2" data-name="Layer 2" xmlns="http://www.w3.org/2000/svg" viewBox="0 0 190.67 143.11">
  <defs>
    <style>
      .cls-1, .cls-2 {
        stroke-miterlimit: 10;
      }

      .cls-1, .cls-2, .cls-3, .cls-4 {
        fill: none;
      }

      .cls-1, .cls-2, .cls-4 {
        stroke: #045cb8;
        stroke-width: 3px;
      }

      .cls-2, .cls-4 {
        stroke-linecap: round;
      }

      .cls-4 {
        stroke-linejoin: round;
      }

      .cls-5 {
        fill: #ff9305;
      }
    </style>
  </defs>
  <g id="Layer_1-2" data-name="Layer 1">
    <g>
      <g>
        <g>
          <path class="cls-2" d="m127.28,41.56h3.87c2.76,0,5,2.24,5,5v75h-35.26"/>
          <path class="cls-2" d="m70.99,121.56h-19.84c-2.76,0-5-2.24-5-5v-10.22"/>
          <circle class="cls-1" cx="85.94" cy="122.77" r="15"/>
          <circle class="cls-1" cx="156.6" cy="122.77" r="15"/>
          <path class="cls-1" d="m141.6,121.56h-5.45v-58c0-1.66,1.34-3,3-3h28.22c1.1,0,2.11.6,2.64,1.57l15.78,29.07c.24.44.36.93.36,1.43v25.93c0,1.66-1.34,3-3,3h-11.55"/>
          <polyline class="cls-4" points="186.15 92.63 154.32 92.63 154.32 72.56"/>
        </g>
        <path class="cls-5" d="m43.79,98.87c-5.19-6.38-16.74-21.86-16.74-30.55,0-10.55,8.55-19.09,19.09-19.09s19.09,8.55,19.09,19.09c0,8.69-11.64,24.17-16.74,30.55-1.22,1.52-3.49,1.52-4.71,0Zm2.36-24.19c3.51,0,6.36-2.85,6.36-6.36s-2.85-6.36-6.36-6.36-6.36,2.85-6.36,6.36,2.85,6.36,6.36,6.36Z"/>
        <path class="cls-5" d="m103.39,98.87c-5.19-6.38-16.74-21.86-16.74-30.55,0-10.55,8.55-19.09,19.09-19.09s19.09,8.55,19.09,19.09c0,8.69-11.64,24.17-16.74,30.55-1.22,1.52-3.49,1.52-4.71,0Zm2.36-24.19c3.51,0,6.36-2.85,6.36-6.36s-2.85-6.36-6.36-6.36-6.36,2.85-6.36,6.36,2.85,6.36,6.36,6.36Z"/>
        <path class="cls-5" d="m73.59,59.42c-5.19-6.38-16.74-21.86-16.74-30.55,0-10.55,8.55-19.09,19.09-19.09s19.09,8.55,19.09,19.09c0,8.69-11.64,24.17-16.74,30.55-1.22,1.52-3.49,1.52-4.71,0Zm2.36-24.19c3.51,0,6.36-2.85,6.36-6.36s-2.85-6.36-6.36-6.36-6.36,2.85-6.36,6.36,2.85,6.36,6.36,6.36Z"/>
      </g>
      <rect class="cls-3" width="190.67" height="143.11"/>
    </g>
  </g>
</svg>