<?xml version="1.0" encoding="UTF-8"?>
<svg id="Layer_2" data-name="Layer 2" xmlns="http://www.w3.org/2000/svg" xmlns:xlink="http://www.w3.org/1999/xlink" viewBox="0 0 198.75 106.99">
  <defs>
    <style>
      .cls-1 {
        fill: url(#linear-gradient);
      }

      .cls-2 {
        fill: #ff9305;
      }
    </style>
    <linearGradient id="linear-gradient" x1="32.05" y1="53.5" x2="168.43" y2="53.5" gradientUnits="userSpaceOnUse">
      <stop offset="0" stop-color="#045cb8"/>
      <stop offset="1" stop-color="#047adb"/>
    </linearGradient>
  </defs>
  <g id="Layer_1-2" data-name="Layer 1">
    <g>
      <path class="cls-2" d="m41.09,61.37c.28.04.56.04.84.06h15.68c.28-.02.56-.02.84-.06.55-.08,1.1-.23,1.61-.45,2.67-1.16,4.13-4.17,3.57-6.88-.46-2.22-2.21-4.06-4.36-4.67-.27-.08-.55-.11-.82-.17-.28-.02-.56-.04-.84-.06h-15.68c-.74.05-.94.03-1.66.23-.54.15-1.06.38-1.53.67-2.18,1.32-3.33,4.04-2.82,6.5.52,2.51,2.69,4.49,5.18,4.84Z"/>
      <path class="cls-2" d="m5.3,12.23c.28.04.56.04.84.06h15.68c.28-.02.56-.02.84-.06.55-.08,1.1-.23,1.61-.45,2.67-1.16,4.13-4.17,3.57-6.88-.46-2.22-2.21-4.06-4.36-4.67-.27-.08-.55-.11-.82-.17-.28-.02-.56-.04-.84-.06H6.13c-.74.05-.94.03-1.66.23-.54.15-1.06.38-1.53.67C.77,2.22-.39,4.93.12,7.39c.52,2.51,2.69,4.49,5.18,4.84Z"/>
      <path class="cls-2" d="m19.06,49.37c-.27-.08-.55-.11-.82-.17-.28-.02-.56-.04-.84-.06h-8.48c-.74.05-.94.03-1.66.23-.54.15-1.06.38-1.53.67-2.18,1.32-3.33,4.04-2.82,6.5.52,2.51,2.69,4.49,5.18,4.84.28.04.56.04.84.06h8.48c.28-.02.56-.02.84-.06.55-.08,1.1-.23,1.61-.45,2.67-1.16,4.13-4.17,3.57-6.88-.46-2.22-2.21-4.06-4.36-4.67Z"/>
      <path class="cls-2" d="m49.72,94.93c-.27-.08-.55-.11-.82-.17-.28-.02-.56-.04-.84-.06h-8.48c-.74.05-.94.03-1.66.23-.54.15-1.06.38-1.53.67-2.18,1.32-3.33,4.04-2.82,6.5.52,2.51,2.69,4.49,5.18,4.84.28.04.56.04.84.06h8.48c.28-.02.56-.02.84-.06.55-.08,1.1-.23,1.61-.45,2.67-1.16,4.13-4.17,3.57-6.88-.46-2.22-2.21-4.06-4.36-4.67Z"/>
      <path class="cls-1" d="m198.75,29.02c0-.05,0-.1,0-.15,0-.15-.02-.3-.04-.45-.14-.95-.57-1.84-1.23-2.54-.34-.36-.51-.48-.81-.68-.07-.05-.14-.1-.22-.14-.03-.02-.06-.04-.09-.06L154.17.63c-.22-.1-.42-.22-.65-.31-.6-.23-.77-.22-1.39-.32-.21,0-.43,0-.64.01-.05,0-.11,0-.16-.01H48.06c-.74.05-.94.03-1.66.23-.54.15-1.06.38-1.53.67-2.18,1.32-3.33,4.04-2.82,6.5.52,2.51,2.69,4.49,5.18,4.84.28.04.56.04.84.06h28.53c.28.03.74.07,1.02.1.21.04.42.08.63.13,2.15.6,3.89,2.44,4.36,4.67.56,2.71-.9,5.72-3.57,6.88-.51.22-1.06.38-1.61.45-.28.04-.56.04-.84.06H6.13c-.74.05-.94.03-1.66.23-.54.15-1.06.38-1.53.67C.77,26.79-.39,29.51.12,31.96c.52,2.51,2.69,4.49,5.18,4.84.28.04.56.04.84.06h84.82c.28.03.74.07,1.02.1.21.04.42.08.63.13,2.15.6,3.89,2.44,4.36,4.67.56,2.71-.9,5.72-3.57,6.88-.51.22-1.06.38-1.61.45-.28.04-.56.04-.84.06h-12.6c-.74.05-.94.03-1.66.23-.54.15-1.06.38-1.53.67-2.18,1.32-3.33,4.04-2.82,6.5.52,2.51,2.69,4.49,5.18,4.84.28.04.56.04.84.06h31.1c2.73,0,4.95-2.21,4.95-4.95v-17.44c0-.72.77-1.16,1.39-.81l21.76,12.57c5.84,3.37,9.45,9.61,9.45,16.36v10.99c0,7-7.58,11.37-13.64,7.87l-17.87-10.34c-.61-.35-1.06-.94-1.2-1.63-.46-2.25-2.46-3.93-4.84-3.93H31.7c-.74.05-.94.03-1.66.23-.54.15-1.06.38-1.53.67-2.18,1.32-3.33,4.04-2.82,6.5.52,2.51,2.69,4.49,5.18,4.84.28.04.56.04.84.06h52.44c.28.03.74.07,1.02.1.21.04.42.08.63.13,2.15.6,3.89,2.44,4.36,4.67.56,2.71-.9,5.72-3.57,6.88-.51.22-1.06.38-1.61.45-.28.04-.56.04-.84.06h-15.47c-.74.05-.94.03-1.66.23-.54.15-1.06.38-1.53.67-2.18,1.32-3.33,4.04-2.82,6.5.52,2.51,2.69,4.49,5.18,4.84.28.04.56.04.84.06h82.81s.06,0,.1,0c.07,0,.15,0,.22,0,.11,0,.23,0,.34-.01.13,0,.25-.02.38-.04.35-.05.69-.14,1.01-.27.12-.05.23-.1.35-.16.02,0,.03-.01.05-.02.37-.16.72-.36,1.04-.59l41.4-23.9c.2-.13.41-.25.59-.4.75-.6,1.31-1.42,1.59-2.33.19-.61.17-.78.21-1.41V29.13s0-.07,0-.11Zm-45.34-17.77l29.73,17.17c.55.32.55,1.12,0,1.44l-5.83,3.37c-1,.58-2.23.58-3.23,0l-29.59-17.08c-.62-.36-.62-1.26,0-1.62l5.66-3.27c1.01-.58,2.25-.58,3.26,0Zm-3.24,35.78l-29.59-17.08c-.62-.36-.62-1.26,0-1.62l5.66-3.27c1.01-.58,2.25-.58,3.26,0l29.73,17.17c.55.32.55,1.12,0,1.44l-5.83,3.37c-1,.58-2.23.58-3.23,0Zm39.01,26.78c0,.79-.42,1.52-1.1,1.91l-28.19,16.28c-1.47.85-3.31-.21-3.31-1.91v-32.55c0-.79.42-1.52,1.1-1.91l7.59-4.38c0,5.65.01,13.69.02,17.72,0,1.12,1.21,1.82,2.18,1.26l11.83-6.74c.73-.42,1.18-1.19,1.18-2.03v-19l5.38-3.11c1.47-.85,3.31.21,3.31,1.91v32.55Z"/>
    </g>
  </g>
</svg>