<?xml version="1.0" encoding="iso-8859-1"?>
<!-- Generator: Adobe Illustrator 23.0.6, SVG Export Plug-In . SVG Version: 6.00 Build 0)  -->
<svg version="1.1" id="Layer_1" xmlns="http://www.w3.org/2000/svg" xmlns:xlink="http://www.w3.org/1999/xlink" x="0px" y="0px"
	 viewBox="0 0 470.965 250.73" style="enable-background:new 0 0 470.965 250.73;" xml:space="preserve">
<g>
	<path style="fill:#FF9305;" d="M163.413,84.803c0.277,0.038,0.558,0.038,0.837,0.057h15.681c0.279-0.019,0.559-0.019,0.836-0.057
		c0.555-0.076,1.097-0.228,1.611-0.451c2.67-1.16,4.131-4.172,3.567-6.884c-0.462-2.225-2.206-4.063-4.357-4.665
		c-0.269-0.075-0.547-0.114-0.821-0.171c-0.279-0.019-0.558-0.038-0.836-0.057h-15.681c-0.741,0.051-0.937,0.026-1.657,0.228
		c-0.54,0.151-1.056,0.375-1.535,0.666c-2.176,1.323-3.333,4.04-2.823,6.499C158.757,82.478,160.924,84.461,163.413,84.803z"/>
	<path style="fill:#FF9305;" d="M127.62,35.66c0.277,0.038,0.558,0.038,0.837,0.057h15.681c0.279-0.019,0.559-0.019,0.836-0.057
		c0.555-0.076,1.097-0.228,1.611-0.451c2.67-1.16,4.131-4.172,3.567-6.884c-0.462-2.225-2.206-4.063-4.357-4.665
		c-0.269-0.075-0.547-0.114-0.821-0.171c-0.279-0.019-0.558-0.038-0.836-0.057h-15.681c-0.741,0.051-0.937,0.026-1.657,0.228
		c-0.54,0.151-1.056,0.375-1.535,0.666c-2.176,1.323-3.333,4.04-2.823,6.498C122.963,33.335,125.131,35.318,127.62,35.66z"/>
	<path style="fill:#FF9305;" d="M141.382,72.802c-0.269-0.075-0.547-0.114-0.821-0.171c-0.279-0.019-0.558-0.038-0.837-0.057h-8.477
		c-0.741,0.051-0.937,0.026-1.657,0.228c-0.54,0.151-1.056,0.375-1.535,0.666c-2.176,1.323-3.333,4.04-2.823,6.499
		c0.522,2.51,2.689,4.494,5.178,4.836c0.277,0.038,0.558,0.038,0.837,0.057h8.477c0.279-0.019,0.559-0.019,0.837-0.057
		c0.555-0.076,1.097-0.228,1.611-0.451c2.67-1.16,4.131-4.172,3.567-6.884C145.277,75.243,143.533,73.405,141.382,72.802z"/>
	<path style="fill:#FF9305;" d="M172.041,118.365c-0.269-0.075-0.547-0.114-0.821-0.171c-0.279-0.019-0.558-0.038-0.836-0.057
		h-8.477c-0.741,0.051-0.937,0.026-1.657,0.228c-0.54,0.151-1.056,0.375-1.535,0.666c-2.176,1.323-3.333,4.04-2.823,6.498
		c0.522,2.51,2.689,4.494,5.178,4.836c0.277,0.038,0.558,0.038,0.836,0.057h8.477c0.279-0.019,0.559-0.019,0.836-0.057
		c0.555-0.076,1.097-0.228,1.611-0.451c2.67-1.16,4.131-4.172,3.567-6.884C175.936,120.805,174.192,118.967,172.041,118.365z"/>
	<linearGradient id="SVGID_1_" gradientUnits="userSpaceOnUse" x1="154.3739" y1="76.9271" x2="290.7536" y2="76.9271">
		<stop  offset="0" style="stop-color:#045CB8"/>
		<stop  offset="1" style="stop-color:#047ADB"/>
	</linearGradient>
	<path style="fill:url(#SVGID_1_);" d="M321.07,52.455c-0.002-0.05-0.004-0.1-0.008-0.15c-0.008-0.152-0.016-0.303-0.039-0.453
		c-0.143-0.947-0.574-1.843-1.225-2.545c-0.336-0.362-0.507-0.483-0.809-0.685c-0.071-0.05-0.144-0.099-0.217-0.145
		c-0.029-0.019-0.059-0.04-0.09-0.061L276.496,24.06c-0.215-0.104-0.423-0.223-0.645-0.311c-0.595-0.234-0.765-0.223-1.392-0.318
		c-0.215,0-0.43,0.001-0.644,0.011c-0.055-0.004-0.109-0.007-0.164-0.011H170.383c-0.741,0.051-0.937,0.026-1.657,0.228
		c-0.54,0.151-1.056,0.375-1.535,0.666c-2.176,1.323-3.333,4.04-2.823,6.498c0.522,2.51,2.689,4.494,5.178,4.836
		c0.277,0.038,0.558,0.038,0.836,0.057h28.531c0.283,0.026,0.741,0.069,1.024,0.095c0.21,0.039,0.42,0.075,0.626,0.133
		c2.151,0.603,3.895,2.441,4.357,4.665c0.564,2.712-0.897,5.724-3.567,6.884c-0.514,0.223-1.056,0.375-1.611,0.451
		c-0.277,0.038-0.558,0.038-0.836,0.057h-70.45c-0.741,0.051-0.937,0.026-1.657,0.228c-0.54,0.151-1.056,0.375-1.535,0.666
		c-2.176,1.323-3.333,4.04-2.823,6.498c0.522,2.51,2.689,4.494,5.178,4.836c0.277,0.038,0.558,0.038,0.837,0.057h84.817
		c0.283,0.026,0.741,0.069,1.024,0.095c0.21,0.039,0.42,0.075,0.626,0.133c2.151,0.603,3.895,2.441,4.357,4.665
		c0.564,2.712-0.897,5.724-3.567,6.884c-0.514,0.223-1.056,0.375-1.611,0.451c-0.277,0.038-0.557,0.038-0.836,0.057h-12.601
		c-0.741,0.051-0.937,0.026-1.657,0.228c-0.54,0.151-1.056,0.375-1.535,0.666c-2.176,1.323-3.333,4.04-2.823,6.499
		c0.522,2.51,2.689,4.494,5.178,4.836c0.277,0.038,0.558,0.038,0.837,0.057h31.095c2.731,0,4.946-2.214,4.946-4.946V62.473
		c0-0.716,0.775-1.163,1.395-0.805l21.765,12.566c5.845,3.374,9.445,9.611,9.445,16.359v10.993c0,7-7.577,11.375-13.639,7.875
		l-17.868-10.339c-0.609-0.353-1.057-0.941-1.198-1.631c-0.461-2.249-2.455-3.926-4.845-3.926h-77.734
		c-0.741,0.051-0.937,0.026-1.657,0.228c-0.54,0.151-1.056,0.375-1.535,0.666c-2.176,1.323-3.333,4.04-2.822,6.498
		c0.522,2.51,2.689,4.494,5.178,4.836c0.277,0.038,0.558,0.038,0.836,0.057h52.441c0.283,0.026,0.741,0.069,1.024,0.095
		c0.21,0.039,0.42,0.075,0.626,0.133c2.151,0.603,3.895,2.441,4.357,4.665c0.564,2.712-0.897,5.724-3.567,6.884
		c-0.514,0.223-1.056,0.375-1.611,0.451c-0.277,0.038-0.558,0.038-0.836,0.057h-15.472c-0.741,0.051-0.937,0.026-1.657,0.228
		c-0.539,0.151-1.056,0.375-1.535,0.666c-2.176,1.323-3.333,4.04-2.823,6.498c0.522,2.51,2.689,4.494,5.178,4.836
		c0.277,0.038,0.558,0.038,0.837,0.057h82.811c0.032-0.002,0.065-0.004,0.097-0.005c0.073,0.003,0.147,0.006,0.22,0.005
		c0.114,0.001,0.229-0.004,0.344-0.012c0.127-0.01,0.253-0.024,0.378-0.045c0.346-0.054,0.687-0.145,1.015-0.273
		c0.119-0.047,0.233-0.102,0.347-0.16c0.015-0.007,0.031-0.012,0.047-0.018c0.37-0.161,0.715-0.359,1.036-0.585l41.401-23.903
		c0.197-0.135,0.405-0.255,0.592-0.403c0.749-0.597,1.309-1.419,1.591-2.333c0.188-0.611,0.165-0.78,0.213-1.412V52.565
		C321.074,52.528,321.072,52.491,321.07,52.455z M275.73,34.682l29.731,17.165c0.553,0.319,0.553,1.117,0,1.436l-5.834,3.368
		c-0.999,0.577-2.229,0.577-3.227,0L266.81,39.568c-0.623-0.36-0.623-1.259,0-1.618l5.66-3.268
		C273.479,34.099,274.721,34.099,275.73,34.682z M272.486,70.457l-29.59-17.083c-0.623-0.36-0.623-1.259,0-1.618l5.66-3.268
		c1.009-0.582,2.251-0.582,3.26,0l29.731,17.165c0.553,0.319,0.553,1.117,0,1.436l-5.834,3.368
		C274.715,71.034,273.485,71.034,272.486,70.457z M311.495,97.237c0,0.788-0.421,1.517-1.103,1.911l-28.191,16.276
		c-1.471,0.849-3.31-0.212-3.31-1.911V80.961c0-0.788,0.421-1.517,1.103-1.911l7.593-4.384c0.004,5.646,0.011,13.69,0.016,17.721
		c0.002,1.12,1.211,1.819,2.185,1.264l11.834-6.74c0.731-0.416,1.183-1.193,1.183-2.034V65.881l5.381-3.107
		c1.471-0.849,3.31,0.212,3.31,1.911V97.237z"/>
</g>
<g>
	<linearGradient id="SVGID_2_" gradientUnits="userSpaceOnUse" x1="20.9524" y1="173.431" x2="80.8838" y2="173.431">
		<stop  offset="0" style="stop-color:#045CB8"/>
		<stop  offset="1" style="stop-color:#047ADB"/>
	</linearGradient>
	<path style="fill:url(#SVGID_2_);" d="M20.952,153.594h9.312l8.182,26.749l8.86-26.861h7.45l8.86,26.861l8.182-26.749h9.085
		L67.397,193.38h-7.562l-8.917-25.847l-8.916,25.847H34.44L20.952,153.594z"/>
	<linearGradient id="SVGID_3_" gradientUnits="userSpaceOnUse" x1="87.3069" y1="173.3463" x2="120.7149" y2="173.3463">
		<stop  offset="0" style="stop-color:#045CB8"/>
		<stop  offset="1" style="stop-color:#047ADB"/>
	</linearGradient>
	<path style="fill:url(#SVGID_3_);" d="M87.307,153.594h8.69v15.632h16.027v-15.632h8.69v39.504h-8.69V177.24H95.997v15.859h-8.69
		V153.594z"/>
	<path style="fill:#FF9305;" d="M178.627,189.684c-1.11,0.847-2.304,1.571-3.583,2.172c-1.28,0.603-2.652,1.073-4.119,1.412
		c-1.467,0.339-3.104,0.508-4.909,0.508c-2.859,0-5.492-0.527-7.899-1.581c-2.408-1.052-4.496-2.492-6.263-4.317
		c-1.769-1.823-3.151-3.978-4.147-6.459c-0.997-2.483-1.495-5.153-1.495-8.013c0-2.82,0.498-5.473,1.495-7.956
		c0.996-2.481,2.379-4.655,4.147-6.516c1.768-1.863,3.874-3.328,6.319-4.401c2.445-1.071,5.115-1.607,8.012-1.607
		c1.806,0,3.433,0.15,4.881,0.451c1.448,0.301,2.793,0.724,4.034,1.268c1.242,0.546,2.389,1.205,3.442,1.975
		c1.052,0.773,2.068,1.628,3.046,2.568l-3.046,3.273c-1.693-1.581-3.508-2.879-5.445-3.893c-1.938-1.016-4.259-1.524-6.968-1.524
		c-2.182,0-4.203,0.415-6.065,1.241c-1.862,0.83-3.48,1.975-4.852,3.442c-1.374,1.467-2.446,3.188-3.217,5.163
		c-0.771,1.975-1.156,4.109-1.156,6.404s0.385,4.439,1.156,6.432c0.771,1.994,1.843,3.724,3.217,5.191
		c1.372,1.467,2.99,2.625,4.852,3.47c1.862,0.847,3.884,1.27,6.065,1.27c2.709,0,5.041-0.497,6.997-1.495
		c1.955-0.997,3.873-2.399,5.755-4.204l2.933,2.877C180.799,187.888,179.736,188.839,178.627,189.684z"/>
	<path style="fill:#FF9305;" d="M225.542,181.107c-0.979,2.464-2.351,4.636-4.119,6.518c-1.769,1.88-3.893,3.375-6.377,4.484
		c-2.482,1.109-5.229,1.666-8.237,1.666c-3.01,0-5.747-0.546-8.21-1.636c-2.464-1.09-4.58-2.568-6.348-4.431
		c-1.768-1.861-3.131-4.024-4.09-6.487c-0.959-2.464-1.439-5.07-1.439-7.816s0.488-5.35,1.467-7.814
		c0.977-2.464,2.35-4.636,4.119-6.516c1.768-1.882,3.893-3.377,6.375-4.486c2.482-1.109,5.228-1.664,8.237-1.664
		c3.009,0,5.746,0.544,8.21,1.634c2.463,1.092,4.579,2.568,6.348,4.431c1.768,1.861,3.131,4.025,4.09,6.489
		c0.96,2.464,1.44,5.068,1.44,7.814S226.519,178.645,225.542,181.107z M221.226,167.031c-0.772-1.994-1.853-3.724-3.244-5.191
		c-1.392-1.467-3.038-2.634-4.937-3.499c-1.9-0.864-3.978-1.298-6.235-1.298c-2.257,0-4.336,0.423-6.235,1.27
		c-1.9,0.847-3.527,2.003-4.881,3.47c-1.354,1.467-2.418,3.188-3.188,5.163c-0.771,1.973-1.156,4.09-1.156,6.347
		c0,2.257,0.385,4.382,1.156,6.377s1.852,3.724,3.244,5.191c1.392,1.467,3.038,2.631,4.937,3.497
		c1.899,0.866,3.978,1.298,6.235,1.298c2.258,0,4.336-0.423,6.236-1.27c1.899-0.845,3.526-2.003,4.88-3.47
		c1.355-1.467,2.417-3.188,3.188-5.161c0.771-1.975,1.157-4.092,1.157-6.349C222.383,171.149,221.996,169.025,221.226,167.031z"/>
	<path style="fill:#FF9305;" d="M268.705,176.228c0,2.896-0.394,5.437-1.183,7.617c-0.792,2.183-1.91,4.005-3.358,5.473
		c-1.448,1.467-3.179,2.568-5.191,3.3c-2.012,0.735-4.26,1.101-6.743,1.101c-2.445,0-4.674-0.366-6.686-1.101
		c-2.013-0.732-3.744-1.823-5.191-3.273c-1.449-1.446-2.568-3.243-3.358-5.388c-0.79-2.145-1.184-4.607-1.184-7.391v-22.966h4.457
		v22.682c0,4.289,1.062,7.581,3.187,9.876s5.087,3.44,8.887,3.44c3.648,0,6.545-1.09,8.689-3.271
		c2.143-2.183,3.216-5.437,3.216-9.762v-22.966h4.456V176.228z"/>
	<path style="fill:#FF9305;" d="M306.454,193.098l-11.455-15.349h-11.284v15.349h-4.456v-39.498h16.983
		c2.181,0,4.147,0.284,5.896,0.849c1.749,0.563,3.243,1.363,4.486,2.399c1.241,1.035,2.2,2.276,2.877,3.726
		c0.677,1.448,1.016,3.057,1.016,4.827c0,1.656-0.265,3.133-0.79,4.431c-0.527,1.298-1.27,2.426-2.229,3.387
		c-0.959,0.959-2.098,1.759-3.415,2.399s-2.746,1.092-4.287,1.355l12.131,16.126H306.454z M303.399,159.787
		c-1.772-1.376-4.259-2.066-7.467-2.066h-12.217v16.081h12.162c1.469,0,2.826-0.188,4.071-0.567c1.245-0.377,2.32-0.915,3.226-1.613
		c0.904-0.699,1.611-1.558,2.121-2.576c0.508-1.018,0.762-2.17,0.762-3.455C306.058,163.1,305.171,161.165,303.399,159.787z"/>
	<path style="fill:#FF9305;" d="M324.904,153.601v39.498h-4.458v-39.498H324.904z"/>
	<path style="fill:#FF9305;" d="M365.017,157.663h-24.092v13.486h21.554v4.063h-21.554v13.824h24.376v4.063h-28.832v-39.498h28.548
		V157.663z"/>
	<path style="fill:#FF9305;" d="M401.469,193.098l-11.455-15.349h-11.284v15.349h-4.456v-39.498h16.983
		c2.181,0,4.147,0.284,5.896,0.849c1.749,0.563,3.243,1.363,4.486,2.399c1.241,1.035,2.2,2.276,2.877,3.726
		c0.677,1.448,1.016,3.057,1.016,4.827c0,1.656-0.265,3.133-0.79,4.431c-0.527,1.298-1.27,2.426-2.229,3.387
		c-0.959,0.959-2.098,1.759-3.415,2.399s-2.746,1.092-4.287,1.355l12.131,16.126H401.469z M398.414,159.787
		c-1.772-1.376-4.259-2.066-7.467-2.066h-12.217v16.081h12.162c1.469,0,2.826-0.188,4.071-0.567c1.245-0.377,2.32-0.915,3.226-1.613
		c0.904-0.699,1.611-1.558,2.121-2.576c0.508-1.018,0.762-2.17,0.762-3.455C401.073,163.1,400.186,161.165,398.414,159.787z"/>
	<path style="fill:#FF9305;" d="M418.96,165.973c0.301,0.754,0.845,1.442,1.634,2.062c0.792,0.622,1.882,1.188,3.273,1.696
		s3.18,0.989,5.36,1.442c4.401,0.978,7.647,2.335,9.734,4.067c2.087,1.734,3.131,4.126,3.131,7.177c0,1.696-0.335,3.241-1.003,4.634
		c-0.669,1.395-1.59,2.581-2.765,3.561s-2.589,1.734-4.245,2.261c-1.656,0.525-3.461,0.79-5.415,0.79
		c-3.161,0-6.048-0.51-8.661-1.529c-2.617-1.02-5.106-2.598-7.477-4.734l2.765-3.273c2.068,1.882,4.156,3.281,6.264,4.204
		c2.104,0.921,4.53,1.382,7.278,1.382c2.67,0,4.804-0.622,6.404-1.865c1.598-1.243,2.396-2.881,2.396-4.918
		c0-0.94-0.15-1.778-0.451-2.513c-0.303-0.735-0.83-1.404-1.586-2.007c-0.754-0.603-1.799-1.147-3.137-1.639
		c-1.338-0.489-3.046-0.961-5.119-1.412c-2.263-0.491-4.232-1.054-5.911-1.696c-1.679-0.641-3.063-1.412-4.158-2.318
		c-1.092-0.902-1.903-1.956-2.43-3.163c-0.529-1.207-0.792-2.638-0.792-4.295c0-1.581,0.32-3.032,0.959-4.351
		c0.639-1.319,1.541-2.458,2.708-3.419c1.167-0.961,2.54-1.715,4.12-2.261c1.579-0.546,3.309-0.819,5.191-0.819
		c2.896,0,5.426,0.398,7.587,1.196c2.164,0.796,4.262,1.996,6.292,3.599l-2.595,3.442c-1.844-1.503-3.696-2.596-5.557-3.273
		c-1.863-0.677-3.809-1.016-5.841-1.016c-1.279,0-2.435,0.171-3.47,0.51c-1.035,0.339-1.918,0.792-2.651,1.357
		c-0.735,0.565-1.298,1.243-1.694,2.032c-0.394,0.792-0.593,1.641-0.593,2.543C418.507,164.372,418.657,165.219,418.96,165.973z"/>
</g>
<g>
	<path d="M98.708,212.084h5.632c4.539,0,7.674,3.115,7.674,7.18v0.041c0,4.064-3.136,7.221-7.674,7.221h-5.632V212.084z
		 M104.339,223.658c2.6,0,4.353-1.754,4.353-4.312v-0.041c0-2.558-1.753-4.353-4.353-4.353h-2.455v8.706H104.339z"/>
	<path d="M115.869,212.084h10.893v2.827h-7.736v2.929h6.808v2.826h-6.808v3.033h7.839v2.826h-10.996V212.084z"/>
	<path d="M130.719,212.084h3.177v11.553h7.2v2.889h-10.377V212.084z"/>
	<path d="M144.663,212.084h3.177v14.441h-3.177V212.084z"/>
	<path d="M151.242,212.084h3.507l3.775,10.171l3.775-10.171h3.424l-5.838,14.545h-2.806L151.242,212.084z"/>
	<path d="M168.98,212.084h10.893v2.827h-7.736v2.929h6.808v2.826h-6.808v3.033h7.839v2.826H168.98V212.084z"/>
	<path d="M183.832,212.084h6.602c1.836,0,3.259,0.517,4.208,1.465c0.805,0.805,1.238,1.939,1.238,3.301v0.042
		c0,2.331-1.258,3.796-3.094,4.477l3.527,5.157h-3.713l-3.094-4.621h-0.042h-2.455v4.621h-3.177V212.084z M190.227,219.099
		c1.547,0,2.435-0.825,2.435-2.042v-0.042c0-1.361-0.949-2.062-2.496-2.062h-3.156v4.146H190.227z"/>
	<path d="M203.324,220.832l-5.549-8.748h3.713l3.445,5.798l3.507-5.798h3.61l-5.549,8.686v5.756h-3.177V220.832z"/>
	<path d="M222.278,212.084h5.632c4.539,0,7.674,3.115,7.674,7.18v0.041c0,4.064-3.136,7.221-7.674,7.221h-5.632V212.084z
		 M227.91,223.658c2.6,0,4.353-1.754,4.353-4.312v-0.041c0-2.558-1.753-4.353-4.353-4.353h-2.455v8.706H227.91z"/>
	<path d="M238.799,219.346v-0.041c0-4.105,3.239-7.468,7.695-7.468s7.654,3.321,7.654,7.427v0.041c0,4.105-3.239,7.469-7.695,7.469
		S238.799,223.451,238.799,219.346z M250.827,219.346v-0.041c0-2.476-1.815-4.538-4.374-4.538s-4.332,2.021-4.332,4.497v0.041
		c0,2.476,1.815,4.539,4.373,4.539C249.053,223.844,250.827,221.822,250.827,219.346z"/>
	<path d="M258.002,212.084h2.93l6.767,8.892v-8.892h3.136v14.441h-2.702l-6.993-9.181v9.181h-3.137V212.084z"/>
	<path d="M275.328,212.084h10.893v2.827h-7.735v2.929h6.808v2.826h-6.808v3.033h7.839v2.826h-10.996V212.084z"/>
	<path d="M297.398,212.084H304c1.836,0,3.259,0.517,4.208,1.465c0.805,0.805,1.237,1.939,1.237,3.301v0.042
		c0,2.331-1.258,3.796-3.094,4.477l3.527,5.157h-3.713l-3.095-4.621h-0.041h-2.455v4.621h-3.177V212.084z M303.793,219.099
		c1.548,0,2.435-0.825,2.435-2.042v-0.042c0-1.361-0.949-2.062-2.496-2.062h-3.156v4.146H303.793z"/>
	<path d="M313.486,212.084h3.178v14.441h-3.178V212.084z"/>
	<path d="M320.665,219.346v-0.041c0-4.105,3.197-7.468,7.571-7.468c2.599,0,4.167,0.701,5.673,1.98l-2.001,2.414
		c-1.114-0.929-2.104-1.465-3.775-1.465c-2.311,0-4.146,2.042-4.146,4.497v0.041c0,2.641,1.815,4.58,4.373,4.58
		c1.155,0,2.188-0.289,2.991-0.866v-2.063h-3.197v-2.743h6.271v6.271c-1.485,1.258-3.527,2.29-6.168,2.29
		C323.759,226.773,320.665,223.616,320.665,219.346z"/>
	<path d="M338.506,212.084h3.178v5.715h5.858v-5.715h3.177v14.441h-3.177v-5.797h-5.858v5.797h-3.178V212.084z"/>
	<path d="M358.576,215.014h-4.395v-2.93h11.966v2.93h-4.395v11.512h-3.177V215.014z"/>
</g>
</svg>
