<?xml version="1.0" encoding="UTF-8"?>
<svg id="Layer_2" data-name="Layer 2" xmlns="http://www.w3.org/2000/svg" viewBox="0 0 421.14 203.34">
  <defs>
    <style>
      .cls-1 {
        fill: #fff;
      }
    </style>
  </defs>
  <g id="Layer_1-2" data-name="Layer 1">
    <g>
      <path class="cls-1" d="m142.46,61.37c.28.04.56.04.84.06h15.68c.28-.02.56-.02.84-.06.55-.08,1.1-.23,1.61-.45,2.67-1.16,4.13-4.17,3.57-6.88-.46-2.22-2.21-4.06-4.36-4.67-.27-.08-.55-.11-.82-.17-.28-.02-.56-.04-.84-.06h-15.68c-.74.05-.94.03-1.66.23-.54.15-1.06.38-1.53.67-2.18,1.32-3.33,4.04-2.82,6.5.52,2.51,2.69,4.49,5.18,4.84Z"/>
      <path class="cls-1" d="m106.67,12.23c.28.04.56.04.84.06h15.68c.28-.02.56-.02.84-.06.55-.08,1.1-.23,1.61-.45,2.67-1.16,4.13-4.17,3.57-6.88-.46-2.22-2.21-4.06-4.36-4.67-.27-.08-.55-.11-.82-.17-.28-.02-.56-.04-.84-.06h-15.68c-.74.05-.94.03-1.66.23-.54.15-1.06.38-1.53.67-2.18,1.32-3.33,4.04-2.82,6.5.52,2.51,2.69,4.49,5.18,4.84Z"/>
      <path class="cls-1" d="m120.43,49.37c-.27-.08-.55-.11-.82-.17-.28-.02-.56-.04-.84-.06h-8.48c-.74.05-.94.03-1.66.23-.54.15-1.06.38-1.53.67-2.18,1.32-3.33,4.04-2.82,6.5.52,2.51,2.69,4.49,5.18,4.84.28.04.56.04.84.06h8.48c.28-.02.56-.02.84-.06.55-.08,1.1-.23,1.61-.45,2.67-1.16,4.13-4.17,3.57-6.88-.46-2.22-2.21-4.06-4.36-4.67Z"/>
      <path class="cls-1" d="m151.09,94.93c-.27-.08-.55-.11-.82-.17-.28-.02-.56-.04-.84-.06h-8.48c-.74.05-.94.03-1.66.23-.54.15-1.06.38-1.53.67-2.18,1.32-3.33,4.04-2.82,6.5.52,2.51,2.69,4.49,5.18,4.84.28.04.56.04.84.06h8.48c.28-.02.56-.02.84-.06.55-.08,1.1-.23,1.61-.45,2.67-1.16,4.13-4.17,3.57-6.88-.46-2.22-2.21-4.06-4.36-4.67Z"/>
      <path class="cls-1" d="m300.12,29.02c0-.05,0-.1,0-.15,0-.15-.02-.3-.04-.45-.14-.95-.57-1.84-1.23-2.54-.34-.36-.51-.48-.81-.68-.07-.05-.14-.1-.22-.14-.03-.02-.06-.04-.09-.06L255.54.63c-.22-.1-.42-.22-.65-.31-.6-.23-.77-.22-1.39-.32-.21,0-.43,0-.64.01-.05,0-.11,0-.16-.01h-103.27c-.74.05-.94.03-1.66.23-.54.15-1.06.38-1.53.67-2.18,1.32-3.33,4.04-2.82,6.5.52,2.51,2.69,4.49,5.18,4.84.28.04.56.04.84.06h28.53c.28.03.74.07,1.02.1.21.04.42.08.63.13,2.15.6,3.89,2.44,4.36,4.67.56,2.71-.9,5.72-3.57,6.88-.51.22-1.06.38-1.61.45-.28.04-.56.04-.84.06h-70.45c-.74.05-.94.03-1.66.23-.54.15-1.06.38-1.53.67-2.18,1.32-3.33,4.04-2.82,6.5.52,2.51,2.69,4.49,5.18,4.84.28.04.56.04.84.06h84.82c.28.03.74.07,1.02.1.21.04.42.08.63.13,2.15.6,3.89,2.44,4.36,4.67.56,2.71-.9,5.72-3.57,6.88-.51.22-1.06.38-1.61.45-.28.04-.56.04-.84.06h-12.6c-.74.05-.94.03-1.66.23-.54.15-1.06.38-1.53.67-2.18,1.32-3.33,4.04-2.82,6.5.52,2.51,2.69,4.49,5.18,4.84.28.04.56.04.84.06h31.1c2.73,0,4.95-2.21,4.95-4.95v-17.44c0-.72.77-1.16,1.39-.81l21.76,12.57c5.84,3.37,9.45,9.61,9.45,16.36v10.99c0,7-7.58,11.37-13.64,7.87l-17.87-10.34c-.61-.35-1.06-.94-1.2-1.63-.46-2.25-2.46-3.93-4.84-3.93h-77.73c-.74.05-.94.03-1.66.23-.54.15-1.06.38-1.53.67-2.18,1.32-3.33,4.04-2.82,6.5.52,2.51,2.69,4.49,5.18,4.84.28.04.56.04.84.06h52.44c.28.03.74.07,1.02.1.21.04.42.08.63.13,2.15.6,3.89,2.44,4.36,4.67.56,2.71-.9,5.72-3.57,6.88-.51.22-1.06.38-1.61.45-.28.04-.56.04-.84.06h-15.47c-.74.05-.94.03-1.66.23-.54.15-1.06.38-1.53.67-2.18,1.32-3.33,4.04-2.82,6.5.52,2.51,2.69,4.49,5.18,4.84.28.04.56.04.84.06h82.81s.06,0,.1,0c.07,0,.15,0,.22,0,.11,0,.23,0,.34-.01.13,0,.25-.02.38-.04.35-.05.69-.14,1.01-.27.12-.05.23-.1.35-.16.02,0,.03-.01.05-.02.37-.16.72-.36,1.04-.59l41.4-23.9c.2-.13.41-.25.59-.4.75-.6,1.31-1.42,1.59-2.33.19-.61.17-.78.21-1.41V29.13s0-.07,0-.11Zm-45.34-17.77l29.73,17.17c.55.32.55,1.12,0,1.44l-5.83,3.37c-1,.58-2.23.58-3.23,0l-29.59-17.08c-.62-.36-.62-1.26,0-1.62l5.66-3.27c1.01-.58,2.25-.58,3.26,0Zm-3.24,35.78l-29.59-17.08c-.62-.36-.62-1.26,0-1.62l5.66-3.27c1.01-.58,2.25-.58,3.26,0l29.73,17.17c.55.32.55,1.12,0,1.44l-5.83,3.37c-1,.58-2.23.58-3.23,0Zm39.01,26.78c0,.79-.42,1.52-1.1,1.91l-28.19,16.28c-1.47.85-3.31-.21-3.31-1.91v-32.55c0-.79.42-1.52,1.1-1.91l7.59-4.38c0,5.65.01,13.69.02,17.72,0,1.12,1.21,1.82,2.18,1.26l11.83-6.74c.73-.42,1.18-1.19,1.18-2.03v-19l5.38-3.11c1.47-.85,3.31.21,3.31,1.91v32.55Z"/>
    </g>
    <g>
      <path class="cls-1" d="m0,130.16h9.31l8.18,26.75,8.86-26.86h7.45l8.86,26.86,8.18-26.75h9.09l-13.49,39.79h-7.56l-8.92-25.85-8.92,25.85h-7.56L0,130.16Z"/>
      <path class="cls-1" d="m66.35,130.16h8.69v15.63h16.03v-15.63h8.69v39.5h-8.69v-15.86h-16.03v15.86h-8.69v-39.5Z"/>
      <path class="cls-1" d="m157.67,166.25c-1.11.85-2.3,1.57-3.58,2.17-1.28.6-2.65,1.07-4.12,1.41s-3.1.51-4.91.51c-2.86,0-5.49-.53-7.9-1.58-2.41-1.05-4.5-2.49-6.26-4.32-1.77-1.82-3.15-3.98-4.15-6.46-1-2.48-1.49-5.15-1.49-8.01s.5-5.47,1.49-7.96c1-2.48,2.38-4.66,4.15-6.52,1.77-1.86,3.87-3.33,6.32-4.4,2.45-1.07,5.11-1.61,8.01-1.61,1.81,0,3.43.15,4.88.45s2.79.72,4.03,1.27c1.24.55,2.39,1.2,3.44,1.98,1.05.77,2.07,1.63,3.05,2.57l-3.05,3.27c-1.69-1.58-3.51-2.88-5.45-3.89-1.94-1.02-4.26-1.52-6.97-1.52-2.18,0-4.2.41-6.07,1.24-1.86.83-3.48,1.98-4.85,3.44-1.37,1.47-2.45,3.19-3.22,5.16s-1.16,4.11-1.16,6.4.39,4.44,1.16,6.43c.77,1.99,1.84,3.72,3.22,5.19,1.37,1.47,2.99,2.63,4.85,3.47,1.86.85,3.88,1.27,6.07,1.27,2.71,0,5.04-.5,7-1.49,1.96-1,3.87-2.4,5.76-4.2l2.93,2.88c-1.02,1.05-2.08,2-3.19,2.85Z"/>
      <path class="cls-1" d="m204.59,157.68c-.98,2.46-2.35,4.64-4.12,6.52-1.77,1.88-3.89,3.37-6.38,4.48-2.48,1.11-5.23,1.67-8.24,1.67s-5.75-.55-8.21-1.64c-2.46-1.09-4.58-2.57-6.35-4.43-1.77-1.86-3.13-4.02-4.09-6.49-.96-2.46-1.44-5.07-1.44-7.82s.49-5.35,1.47-7.81c.98-2.46,2.35-4.64,4.12-6.52,1.77-1.88,3.89-3.38,6.38-4.49s5.23-1.66,8.24-1.66,5.75.54,8.21,1.63c2.46,1.09,4.58,2.57,6.35,4.43,1.77,1.86,3.13,4.02,4.09,6.49.96,2.46,1.44,5.07,1.44,7.81s-.49,5.35-1.47,7.81Zm-4.32-14.08c-.77-1.99-1.85-3.72-3.24-5.19-1.39-1.47-3.04-2.63-4.94-3.5-1.9-.86-3.98-1.3-6.23-1.3s-4.34.42-6.23,1.27c-1.9.85-3.53,2-4.88,3.47s-2.42,3.19-3.19,5.16c-.77,1.97-1.16,4.09-1.16,6.35s.39,4.38,1.16,6.38,1.85,3.72,3.24,5.19,3.04,2.63,4.94,3.5,3.98,1.3,6.23,1.3,4.34-.42,6.24-1.27c1.9-.84,3.53-2,4.88-3.47,1.35-1.47,2.42-3.19,3.19-5.16.77-1.98,1.16-4.09,1.16-6.35s-.39-4.38-1.16-6.37Z"/>
      <path class="cls-1" d="m247.75,152.8c0,2.9-.39,5.44-1.18,7.62-.79,2.18-1.91,4.01-3.36,5.47s-3.18,2.57-5.19,3.3c-2.01.73-4.26,1.1-6.74,1.1s-4.67-.37-6.69-1.1c-2.01-.73-3.74-1.82-5.19-3.27-1.45-1.45-2.57-3.24-3.36-5.39s-1.18-4.61-1.18-7.39v-22.97h4.46v22.68c0,4.29,1.06,7.58,3.19,9.88s5.09,3.44,8.89,3.44,6.54-1.09,8.69-3.27c2.14-2.18,3.22-5.44,3.22-9.76v-22.97h4.46v22.63Z"/>
      <path class="cls-1" d="m285.5,169.67l-11.46-15.35h-11.28v15.35h-4.46v-39.5h16.98c2.18,0,4.15.28,5.9.85,1.75.56,3.24,1.36,4.49,2.4,1.24,1.04,2.2,2.28,2.88,3.73.68,1.45,1.02,3.06,1.02,4.83,0,1.66-.26,3.13-.79,4.43-.53,1.3-1.27,2.43-2.23,3.39-.96.96-2.1,1.76-3.41,2.4s-2.75,1.09-4.29,1.35l12.13,16.13h-5.47Zm-3.05-33.31c-1.77-1.38-4.26-2.07-7.47-2.07h-12.22v16.08h12.16c1.47,0,2.83-.19,4.07-.57,1.24-.38,2.32-.91,3.23-1.61.9-.7,1.61-1.56,2.12-2.58.51-1.02.76-2.17.76-3.46,0-2.49-.89-4.42-2.66-5.8Z"/>
      <path class="cls-1" d="m303.95,130.17v39.5h-4.46v-39.5h4.46Z"/>
      <path class="cls-1" d="m344.06,134.23h-24.09v13.49h21.55v4.06h-21.55v13.82h24.38v4.06h-28.83v-39.5h28.55v4.06Z"/>
      <path class="cls-1" d="m380.52,169.67l-11.46-15.35h-11.28v15.35h-4.46v-39.5h16.98c2.18,0,4.15.28,5.9.85,1.75.56,3.24,1.36,4.49,2.4,1.24,1.04,2.2,2.28,2.88,3.73.68,1.45,1.02,3.06,1.02,4.83,0,1.66-.26,3.13-.79,4.43-.53,1.3-1.27,2.43-2.23,3.39-.96.96-2.1,1.76-3.41,2.4s-2.75,1.09-4.29,1.35l12.13,16.13h-5.47Zm-3.05-33.31c-1.77-1.38-4.26-2.07-7.47-2.07h-12.22v16.08h12.16c1.47,0,2.83-.19,4.07-.57,1.24-.38,2.32-.91,3.23-1.61.9-.7,1.61-1.56,2.12-2.58.51-1.02.76-2.17.76-3.46,0-2.49-.89-4.42-2.66-5.8Z"/>
      <path class="cls-1" d="m398.01,142.54c.3.75.84,1.44,1.63,2.06.79.62,1.88,1.19,3.27,1.7s3.18.99,5.36,1.44c4.4.98,7.65,2.34,9.73,4.07,2.09,1.73,3.13,4.13,3.13,7.18,0,1.7-.33,3.24-1,4.63-.67,1.4-1.59,2.58-2.76,3.56s-2.59,1.73-4.24,2.26c-1.66.53-3.46.79-5.42.79-3.16,0-6.05-.51-8.66-1.53-2.62-1.02-5.11-2.6-7.48-4.73l2.76-3.27c2.07,1.88,4.16,3.28,6.26,4.2,2.1.92,4.53,1.38,7.28,1.38s4.8-.62,6.4-1.87c1.6-1.24,2.4-2.88,2.4-4.92,0-.94-.15-1.78-.45-2.51-.3-.73-.83-1.4-1.59-2.01-.75-.6-1.8-1.15-3.14-1.64-1.34-.49-3.05-.96-5.12-1.41-2.26-.49-4.23-1.05-5.91-1.7s-3.06-1.41-4.16-2.32c-1.09-.9-1.9-1.96-2.43-3.16-.53-1.21-.79-2.64-.79-4.3s.32-3.03.96-4.35,1.54-2.46,2.71-3.42,2.54-1.71,4.12-2.26,3.31-.82,5.19-.82c2.9,0,5.43.4,7.59,1.2,2.16.8,4.26,2,6.29,3.6l-2.6,3.44c-1.84-1.5-3.7-2.6-5.56-3.27-1.86-.68-3.81-1.02-5.84-1.02-1.28,0-2.43.17-3.47.51s-1.92.79-2.65,1.36c-.73.57-1.3,1.24-1.69,2.03-.39.79-.59,1.64-.59,2.54s.15,1.79.45,2.54Z"/>
    </g>
    <g>
      <path class="cls-1" d="m77.76,188.65h5.63c4.54,0,7.67,3.12,7.67,7.18v.04c0,4.06-3.14,7.22-7.67,7.22h-5.63v-14.44Zm5.63,11.57c2.6,0,4.35-1.75,4.35-4.31v-.04c0-2.56-1.75-4.35-4.35-4.35h-2.45v8.71h2.45Z"/>
      <path class="cls-1" d="m94.92,188.65h10.89v2.83h-7.74v2.93h6.81v2.83h-6.81v3.03h7.84v2.83h-11v-14.44Z"/>
      <path class="cls-1" d="m109.77,188.65h3.18v11.55h7.2v2.89h-10.38v-14.44Z"/>
      <path class="cls-1" d="m123.71,188.65h3.18v14.44h-3.18v-14.44Z"/>
      <path class="cls-1" d="m130.29,188.65h3.51l3.77,10.17,3.78-10.17h3.42l-5.84,14.54h-2.81l-5.84-14.54Z"/>
      <path class="cls-1" d="m148.03,188.65h10.89v2.83h-7.74v2.93h6.81v2.83h-6.81v3.03h7.84v2.83h-11v-14.44Z"/>
      <path class="cls-1" d="m162.88,188.65h6.6c1.84,0,3.26.52,4.21,1.46.8.8,1.24,1.94,1.24,3.3v.04c0,2.33-1.26,3.8-3.09,4.48l3.53,5.16h-3.71l-3.09-4.62h-2.5v4.62h-3.18v-14.44Zm6.4,7.01c1.55,0,2.43-.83,2.43-2.04v-.04c0-1.36-.95-2.06-2.5-2.06h-3.16v4.15h3.22Z"/>
      <path class="cls-1" d="m182.37,197.4l-5.55-8.75h3.71l3.45,5.8,3.51-5.8h3.61l-5.55,8.69v5.76h-3.18v-5.69Z"/>
      <path class="cls-1" d="m201.33,188.65h5.63c4.54,0,7.67,3.12,7.67,7.18v.04c0,4.06-3.14,7.22-7.67,7.22h-5.63v-14.44Zm5.63,11.57c2.6,0,4.35-1.75,4.35-4.31v-.04c0-2.56-1.75-4.35-4.35-4.35h-2.46v8.71h2.46Z"/>
      <path class="cls-1" d="m217.85,195.91v-.04c0-4.11,3.24-7.47,7.69-7.47s7.65,3.32,7.65,7.43v.04c0,4.11-3.24,7.47-7.7,7.47s-7.65-3.32-7.65-7.43Zm12.03,0v-.04c0-2.48-1.82-4.54-4.37-4.54s-4.33,2.02-4.33,4.5v.04c0,2.48,1.82,4.54,4.37,4.54s4.33-2.02,4.33-4.5Z"/>
      <path class="cls-1" d="m237.05,188.65h2.93l6.77,8.89v-8.89h3.14v14.44h-2.7l-6.99-9.18v9.18h-3.14v-14.44Z"/>
      <path class="cls-1" d="m254.38,188.65h10.89v2.83h-7.74v2.93h6.81v2.83h-6.81v3.03h7.84v2.83h-11v-14.44Z"/>
      <path class="cls-1" d="m276.45,188.65h6.6c1.84,0,3.26.52,4.21,1.46.8.8,1.24,1.94,1.24,3.3v.04c0,2.33-1.26,3.8-3.09,4.48l3.53,5.16h-3.71l-3.09-4.62h-2.5v4.62h-3.18v-14.44Zm6.39,7.01c1.55,0,2.43-.83,2.43-2.04v-.04c0-1.36-.95-2.06-2.5-2.06h-3.16v4.15h3.22Z"/>
      <path class="cls-1" d="m292.53,188.65h3.18v14.44h-3.18v-14.44Z"/>
      <path class="cls-1" d="m299.71,195.91v-.04c0-4.11,3.2-7.47,7.57-7.47,2.6,0,4.17.7,5.67,1.98l-2,2.41c-1.11-.93-2.1-1.46-3.78-1.46-2.31,0-4.15,2.04-4.15,4.5v.04c0,2.64,1.82,4.58,4.37,4.58,1.16,0,2.19-.29,2.99-.87v-2.06h-3.2v-2.74h6.27v6.27c-1.49,1.26-3.53,2.29-6.17,2.29-4.5,0-7.59-3.16-7.59-7.43Z"/>
      <path class="cls-1" d="m317.55,188.65h3.18v5.71h5.86v-5.71h3.18v14.44h-3.18v-5.8h-5.86v5.8h-3.18v-14.44Z"/>
      <path class="cls-1" d="m337.62,191.58h-4.39v-2.93h11.97v2.93h-4.39v11.51h-3.18v-11.51Z"/>
    </g>
  </g>
</svg>